<?xml version="1.0" encoding="UTF-8"?>
<svg id="Layer_1" xmlns="http://www.w3.org/2000/svg" version="1.1" viewBox="0 0 500 404.4">
  <!-- Generator: Adobe Illustrator 30.2.1, SVG Export Plug-In . SVG Version: 2.1.1 Build 1)  -->
  <defs>
    <style>
      .st0 {
        fill: #f6f6f6;
      }
    </style>
  </defs>
  <path class="st0" d="M8.9,319v-66.4c0-4.3,0-4.4,4.1-4.9,14-2,28.1-3.1,42.2-2.3,11.2.7,22.2,3.1,31.4,10.1,10.5,8.1,15.7,19,16.2,32.1.5,11.1-1.7,21.5-8.4,30.6-7.7,10.4-18.5,16-30.9,18.9-8.3,1.9-16.6,1.7-25,1.6-3.4,0-3.7.2-3.7,3.7,0,14.7,0,29.4,0,44,0,4.6-2.1,6.8-6.7,6.8-4.2,0-8.5,0-12.7,0-4.4,0-6.6-2.3-6.6-6.7,0-22.5,0-45,0-67.5h0ZM35,291.8h0v18.9c0,5.1.2,5.4,5.3,5.4,3.6,0,7.2.2,10.8,0,6.6-.6,12.8-2.2,18.1-6.7,5.8-5,7.8-11.5,7.9-18.8.2-9.9-4.9-17.2-14.2-20.8-7.9-3-16.1-2.5-24.2-2-2.8.2-3.7,1.4-3.7,4,.1,6.6,0,13.3,0,20h0ZM182.3,265.9c-3.4,0-6.8,0-10.3,0-1.9,0-3.2.9-4.2,2.4-2.1,3.1-1.5,6.1-.3,9.3,3.4,8.6,6.9,17.2,10,25.9,2.9,8.2,6.3,16.3,9.1,24.5,2.5,7.4,5.8,14.5,8.5,21.8,5.2,14,10.4,28,15.5,42,.8,2.1,2.1,3.1,4.2,3.1h20.5c2.4,0,3.9-1.1,4.8-3.5,3.7-9.8,7.6-19.4,11.4-29.2,6.5-16.7,13-33.4,19.5-50,4.9-12.5,9.9-24.9,14.7-37.4,1.7-4.4-1.6-8.9-6.2-8.9-6.2,0-12.4,0-18.6,0-3.6,0-4.5.7-5.5,4.2-3.4,11.4-7.9,22.4-11.6,33.6-5.1,15.5-10.8,30.7-16.3,46-.2.7,0,1.9-1.2,1.9-1,0-1.1-1.1-1.4-1.8-4.4-12.5-8.7-25-13-37.5-5-14.4-10.2-28.7-15.2-43-.9-2.6-2.4-3.6-5-3.5-3.1,0-6.3,0-9.4,0h0s0,0,0,0ZM313.8,308.8c0-4.4-1.8-6.2-6.2-6.2-2.8,0-5.6,0-8.4,0-4.9,0-7.1,2.1-7.1,7.1,0,25.6,0,51.1,0,76.7,0,4.2,2.2,6.4,6.5,6.5,2.8,0,5.6,0,8.4,0,5.1,0,6.8-1.7,6.9-6.8,0-12.8,0-25.6,0-38.4v-38.9h0ZM492,348.9c0,12.6-.1,25.2,1,37.8.4,3.9-2.4,6.7-6.3,6.7-4.7,0-9.4,0-14,0-2.3,0-3.6-.8-3.8-3.1,0-.6-.2-1.2-.4-1.9-.3-1.7-1.1-2.1-2.6-1-3.8,2.7-7.9,5-12.5,6.3-12.6,3.5-24.9,3.1-35.8-5.1-7.6-5.7-11.6-13.6-12.2-23.1-1.5-21.2,12.5-34.4,31.1-39.7,8.4-2.4,17-3.7,25.8-3.9,3,0,3.4-.6,2.9-3.6-1.7-8.6-7.2-13.1-16.7-13.5-8-.3-15.5,1.5-22.7,5.1-4.8,2.4-8.6.9-10.4-4.2-.8-2.4-1.8-4.7-2.5-7.1-1.3-3.9-1.1-4.6,2.4-6.6,8.6-4.8,17.8-7.8,27.7-8.4,7.7-.5,15.4-.6,23,1.9,13.5,4.4,21.2,13.9,24.4,27.5,1.6,6.9,1.6,13.9,1.6,20.9v14.9h0ZM466,351.3c0-1.9,0-3.8,0-5.7.1-2.4-1-3.2-3.2-3.1-6.6.5-13.2,1.1-19.6,3.4-9.2,3.3-13.2,10.7-10.7,20.1.9,3.3,2.9,5.5,6,6.8,7.6,3.1,17.8.3,23.1-5.9,3.9-4.6,5-9.8,4.5-15.6h0ZM344,370.2c1.6,9.4,5.3,17.3,14.2,22,7.4,3.9,15.3,3.7,23.2,3,3.4-.3,6.7-1.1,10-2.4,2-.8,3-2.1,2.9-4.3-.3-3.5-.4-7-.8-10.5-.5-4.6-3.7-6.8-8.3-6.1-1.6.2-3.2.5-4.8.6-5.5.5-9.5-2.1-10.4-6.8-.6-3.4-1.1-6.8-1.1-10.2v-43.8c0-3.6.6-4.2,4.2-4.3,4.9,0,9.7,0,14.6,0,5.1,0,7.6-2.5,7.6-7.5,0-2.5,0-5,0-7.6,0-3.8-2.8-6.6-6.6-6.6-5.1,0-10.3,0-15.4,0-4,0-4.4-.4-4.4-4.3,0-6.2,0-12.4,0-18.6,0-3.6-3.9-6.2-7.4-5.2-4.6,1.3-9.2,2.5-13.8,3.8-4.6,1.2-4.7,1.4-4.8,6.3,0,5,0,10.1,0,15.1,0,2.2-.9,3.1-3.1,3-2,0-4,0-5.9,0-3.9,0-6.2,2.4-6.2,6.2,0,3.1,0,6.1,0,9.2,0,3.8,2.4,6.1,6.3,6.2,1.8,0,3.6,0,5.4,0,3.2,0,3.5.3,3.5,3.6,0,8.4,0,16.8,0,27.1.4,9.4-.9,20.8,1.1,32h0ZM302.9,270.1c-7.4,0-13,5.7-13,13.2,0,6.8,5.5,12.2,12.5,12.2,7.5,0,13-5.3,13-12.5,0-7.3-5.4-12.9-12.4-12.9h0ZM118,323.1c-4.6,0-6.8,2.3-6.9,6.8,0,2.3,0,4.7,0,7,0,4.8,2.6,7.3,7.3,7.4,14.6,0,29.2,0,43.8,0s7.3-2.5,7.3-7.3c0-2.5,0-5,0-7.6,0-4-2.3-6.3-6.4-6.3-7.6,0-15.1,0-22.7,0s-14.9,0-22.4,0h0Z"/>
  <g>
    <g>
      <polygon class="st0" points="188.9 161.9 188.9 161.9 188.9 161.9 188.9 161.9"/>
      <path class="st0" d="M253.2,195.1c-.3-8.9-2.5-17.3-7.3-24.8-2.7-4.1-6.4-6.8-11.1-7.9-3.6-.9-7.1-.5-10.7-.5-11.7.1-23.4,0-35.1,0h0c-8.8,0-17.6,0-26.5,0-8.8,0-17.6.2-26.4.5-7.1.2-14.1.8-20.9,3.7-19,8.1-25.6,26.4-20.5,44.1,4.5,15.6,16.4,23,31.9,25.2,8.6,1.2,17.2.3,25.9.5,21,.4,41.9-.6,62.9-.5,5.2,0,10.4,0,15.7,0,6.3,0,11.3-2.6,15-7.8,2.1-2.9,3.5-6,4.7-9.4,2.7-7.5,2.9-15.3,2.6-23.2ZM240.6,173.2c-.3,1.7-1.5,1.5-2.7,1.5-12.3,0-24.7-.2-37,.2-22.7.7-45.3,0-68,.5-7.8.2-15.5,1.2-22.5,5.5-1.3.8-2.2,1.8-3.3,2.7-.4.3-.8.9-1.3.4-.5-.5,0-1,.2-1.4,2.6-4,6.2-6.6,10.3-8.7,5.2-2.6,10.8-3.2,16.5-3.4,20-.7,40.1-.5,60.1-.6h0c13.9,0,27.9,0,41.8,0s2.7,0,4,.5c1.2.6,2.1,1.3,1.8,2.9Z"/>
    </g>
    <path class="st0" d="M409.9,193.7c-.3-6.3-2.5-11.8-6.1-16.7-8.2-11.2-19.8-15.9-33.2-16-30.7-.2-61.4,0-92,.5-7.6,0-15.3,0-23,0h0c-1.7,0-3.6.1-4.4,2-.8,1.9.4,3.3,1.6,4.5,1,1,1.7,2,2.5,3.2,5.1,8,6.5,17.1,6.9,26.3.5,12.7-3.4,24.1-11.7,33.9-.6.7-1.5,1.5-1.2,2.6.5,1.3,1.8,1,2.8,1.1,6,.7,12,.1,18,0,28.7-.2,57.4-.1,86.1-.6,6.8-.1,13.7-.4,20.5-1.2,12.1-1.4,21.4-7.6,28.3-17.4,4.7-6.6,5.3-14.3,5-22.2ZM397.5,184c-.5.5-1-.1-1.3-.4-1.1-.9-2.1-2-3.3-2.7-6.9-4.2-14.7-5.3-22.5-5.5-22.6-.5-45.3.2-68-.5-12.3-.4-24.7-.1-37-.2-1.2,0-2.4.2-2.7-1.5-.3-1.6.6-2.3,1.8-2.9,1.3-.6,2.6-.5,4-.5h41.8,0c20.1,0,40.1-.1,60.1.6,5.6.2,11.3.8,16.5,3.4,4.1,2.1,7.8,4.8,10.3,8.7.3.5.7,1,.2,1.4Z"/>
  </g>
  <g>
    <path class="st0" d="M313.8,147.2c-10.9-.4-17.3-10-12.2-20.4,2.9-5.9,6.9-11.4,10.5-17,1.6-2.4,3.2-2.4,4.8,0,3.5,5.2,7.2,10.3,10.4,15.8,6.5,11.1-.2,21.6-13.5,21.5ZM191.1,147.6c5.7-.8,9.7-4.7,10-10,.3-4.8-.5-9.3-3.1-13.4-2.9-4.7-6.5-9.1-8.7-14.3-.5-1.2-1.4-1.8-2.8-1.7-1.3,0-1.9.8-2.4,1.9-2.1,4.8-4.7,9.3-7.9,13.5-1.6,2.2-2.7,4.6-3.2,7.3-2.1,11,2.6,16.9,13.7,16.9,1.4,0,2.9,0,4.3-.2h0Z"/>
    <path class="st0" d="M292,94.3c-3-11.8-7.9-23-13.2-33.9-7.8-15.8-16.1-31.4-22.8-47.8-.7-1.7-.8-4.2-3.5-4.2-2.6,0-2.8,2.5-3.5,4.2-3.3,9-7.3,17.6-11.6,26.1-7.2,14.2-14.5,28.3-20.2,43.3-4.3,11.4-7.2,23-6,35.3,1.7,17.9,15.3,27.8,30.1,31.9,3.2.9,6.5.3,9.7,0-2.4.3-2.8-.8-2.6-3,.5-4,1-8,1-12,0-12.3,1.3-24.6,1.4-36.9,0-6.4.9-12.9,1-19.3,0-.7-.2-1.5.9-1.9h0c.6,3.8.4,7.5.6,11.2.4,8.6.8,17.2,1.4,25.8.7,9.6.7,19.3,1.9,28.9.2,1.8-.2,3.6.3,5.4.3,1.3-.5,1.6-1.5,1.6,0,0-.1,0-.2,0,.1,0,.2,0,.3,0h0c5.5.7,10.5-.6,15.5-2.8,12-5.5,20.5-13.8,22.8-27.3,1.4-8.5.1-16.7-2-24.8Z"/>
    <path class="st0" d="M453.1,47.1c-.4-1-1.4-1-2.3-1-2.6,0-5.2-.2-7.8.2-22.4,4-44.2,9.9-64.7,20.3-9.3,4.7-17.1,11.3-23.4,19.6-6,7.9-9.3,17-11.3,26.6-.8,3.7-1.3,7.4-1.9,11.2-1.1,6.5-2.3,12.9-4.8,19.1-1.5,3.5-.5,5.7,2.3,5.7,8.6,0,16.9,2.7,24.9,1.5h0c6,.4,11.3,0,16.6-.4,9.2-.7,17.1-4.1,23-11.4,3.7-4.5,4.5-10.2,5.5-15.6,1.6-9.3,2.9-18.7,6.3-27.6,5.7-15,14.7-27.5,26.9-37.8,3.2-2.7,6.6-5.3,9.8-8,.7-.6,1.4-1.3,1-2.3ZM386.8,90.3c-5.5,8-8.4,17-11,26.2-2.8,9.6-7.1,18.6-15.2,25.1-1.5,1.2-3,2.5-4.5,3.8-4.5,4.2-9.9,3.9-15.4,3.2-.6,0-1.2-.2-1.3-.8-.1-1.2,1.1-1.4,1.8-1.6,4.1-1.4,7.7-3.7,11.2-6.2,7.4-5.3,12.7-12.2,16.4-20.5,3.8-8.3,7.6-16.6,11.5-24.9,1.8-3.7,4.6-6.8,7.8-9.6.7-.6,1.4-1.1,2.8-1h0c-.8,2.6-2.8,4.2-4.1,6.2Z"/>
    <path class="st0" d="M160.9,143.2c-2.8-7.2-4-14.8-5-22.3-1.2-9-3.6-17.7-7.8-25.7-7.3-14-18.8-23.7-33.2-29.9-20.1-8.7-41.1-14.4-62.7-17.6-2.2-.3-5.2-.9-6.1,1.2-1,2.3,1.7,3.8,3.5,5.1,9.6,7,17.9,15.3,24.4,25.3,9,13.8,13.7,29,15.5,45.3.7,6.7,2.3,13.3,7.6,18,8.9,8,19.9,9.6,31.2,9.2,9.2-.3,18.4-1.6,27.7-1.5h0c5.5.3,7.1-1.9,5-7.1ZM157.6,149.8c-5.5.7-10.9,1-15.4-3.2-1.4-1.3-2.9-2.6-4.5-3.8-8.1-6.5-12.5-15.5-15.2-25.1-2.7-9.2-5.5-18.2-11-26.2-1.3-2-3.3-3.6-4.1-6.2h0c1.3,0,2.1.4,2.8,1,3.1,2.7,5.9,5.8,7.8,9.6,4,8.2,7.8,16.5,11.5,24.8,3.7,8.3,9,15.2,16.4,20.5,3.5,2.5,7,4.8,11.2,6.2.8.2,1.9.4,1.8,1.6,0,.6-.7.7-1.3.8Z"/>
  </g>
</svg>